# Blender v2.79 (sub 0) OBJ File: ''
# www.blender.org
o Volumenkörper1:1
v 133.550003 44.673340 0.400007
v 122.650002 44.673340 0.400007
v 133.550003 44.673340 8.400007
v 122.650002 44.673340 8.400007
v 133.550003 36.673340 0.400006
v 122.650002 36.673340 0.400006
v 133.550003 36.673340 8.400005
v 122.650002 36.673340 8.400005
v 122.650002 36.173340 8.900005
v 122.650002 45.173340 8.900007
v 110.150002 36.173340 8.900005
v 110.150002 45.173340 8.900007
v 122.650002 45.173340 -0.099993
v 122.650002 36.173340 -0.099994
v 110.150002 45.173340 -0.099993
v 110.150002 36.173340 -0.099994
v 110.150002 36.173340 -9.249994
v 110.150002 45.173340 -9.249992
v 110.150002 36.173340 9.250006
v 122.650002 36.173336 15.000006
v 48.849998 36.173336 15.000006
v 48.849998 36.173340 9.250006
v 122.650002 36.173344 -14.999994
v 122.650002 34.173344 -14.999994
v 122.650002 34.173336 15.000006
v 48.849998 34.173336 15.000006
v 48.849998 36.173344 -14.999994
v 48.849998 34.173344 -14.999994
v 48.849998 36.173340 -9.249994
v 110.150002 45.173340 9.250008
v 71.650002 43.973343 -9.249992
v 48.849998 43.973343 -9.249992
v 71.650002 45.173340 -9.249992
v 59.650002 32.173340 -1.999995
v 59.650002 32.173340 2.000005
v 59.650002 34.173340 -1.999994
v 59.650002 34.173340 2.000005
v 63.650002 32.173340 2.000005
v 63.650002 34.173340 2.000005
v 63.650002 32.173340 -1.999995
v 63.650002 34.173340 -1.999994
v 60.180534 41.973343 2.022549
v 60.180534 43.973343 2.022549
v 61.650002 41.973343 2.500007
v 61.650002 43.973343 2.500007
v 63.119465 41.973343 2.022549
v 63.119465 43.973343 2.022549
v 64.027641 41.973343 0.772549
v 64.027641 43.973343 0.772549
v 64.027641 41.973343 -0.772535
v 64.027641 43.973343 -0.772535
v 63.119465 41.973343 -2.022535
v 63.119465 43.973343 -2.022535
v 61.650002 41.973343 -2.499993
v 61.650002 43.973343 -2.499993
v 60.180534 41.973343 -2.022535
v 60.180534 43.973343 -2.022535
v 59.272358 41.973343 -0.772535
v 59.272358 43.973343 -0.772535
v 59.272358 41.973343 0.772549
v 59.272358 43.973343 0.772549
v 71.650002 43.973343 9.250008
v 71.650002 45.173340 9.250008
v 48.849998 43.973343 9.250008
vt 10.900000 4.000000
vt 0.000000 4.000000
vt 10.900000 -4.000000
vt 0.000000 -4.000000
vt 4.000000 10.900000
vt -4.000000 10.900000
vt 4.000000 0.000000
vt -4.000000 0.000000
vt -10.900000 -4.000000
vt 0.000000 -4.000000
vt -10.900000 4.000000
vt 0.000000 4.000000
vt 4.000000 10.900000
vt -4.000000 10.900000
vt 4.000000 0.000000
vt -4.000000 0.000000
vt -4.000000 -4.000000
vt 4.000000 -4.000000
vt -4.000000 4.000000
vt 4.000000 4.000000
vt 4.500000 12.500000
vt -4.500000 12.500000
vt 4.500000 0.000000
vt -4.500000 0.000000
vt 4.500000 12.500000
vt -4.500000 12.500000
vt 4.500000 0.000000
vt -4.500000 0.000000
vt 9.150000 3.500000
vt 0.000000 3.500000
vt 9.150000 -5.500000
vt 0.000000 -5.500000
vt 24.400000 -8.900000
vt 24.400000 -9.250000
vt 36.900002 -8.900000
vt 36.900002 -15.000000
vt -36.900002 -15.000000
vt -36.900002 -9.250000
vt -15.000000 -2.000000
vt -0.100000 -2.000000
vt -15.000000 0.000000
vt 15.000000 0.000000
vt 8.900000 -2.000000
vt 15.000000 -2.000000
vt -0.100000 -11.000000
vt 0.400000 -2.500000
vt 8.400000 -2.500000
vt 8.900000 -11.000000
vt 8.400000 -10.500000
vt 0.400000 -10.500000
vt -2.000000 -36.900002
vt 0.000000 -36.900002
vt -2.000000 36.900002
vt 0.000000 36.900002
vt 2.000000 36.900002
vt 0.000000 36.900002
vt 2.000000 -36.900002
vt 0.000000 -36.900002
vt 24.400000 0.100000
vt 36.900002 0.100000
vt 24.400000 9.250000
vt 36.900002 15.000000
vt -36.900002 15.000000
vt -36.900002 9.250000
vt 18.150000 -5.500000
vt 18.500000 -5.500000
vt 18.150000 3.500000
vt 18.500000 3.500000
vt 5.500000 30.650000
vt -3.500000 30.650000
vt 4.300000 -7.850000
vt -3.500000 -30.650000
vt 4.300000 -30.650000
vt 5.500000 -7.850000
vt 2.000000 2.000000
vt -2.000000 2.000000
vt 2.000000 0.000000
vt -2.000000 0.000000
vt 2.000000 2.000000
vt 0.000000 2.000000
vt 2.000000 -2.000000
vt 0.000000 -2.000000
vt -2.000000 2.000000
vt 2.000000 0.000000
vt -2.000000 0.000000
vt -2.000000 -2.000000
vt 0.000000 -2.000000
vt 0.000000 2.000000
vt -2.000000 -2.000000
vt 2.000000 1.570796
vt 0.000000 1.570796
vt 2.000000 0.000000
vt 0.000000 0.000000
vt 2.000000 -1.570796
vt 0.000000 -1.570796
vt 2.000000 -3.141593
vt 0.000000 -3.141593
vt 2.000000 -4.712389
vt 0.000000 -4.712389
vt 2.000000 -6.283185
vt 0.000000 -6.283185
vt 2.000000 -7.853982
vt 0.000000 -7.853982
vt 2.000000 7.853982
vt 0.000000 7.853982
vt 2.000000 6.283185
vt 0.000000 6.283185
vt 2.000000 4.712389
vt 0.000000 4.712389
vt 2.000000 3.141593
vt 0.000000 3.141593
vt 1.469463 -2.022542
vt 0.000000 2.500000
vt 0.000000 -2.500000
vt -1.469463 2.022542
vt -1.469463 -2.022542
vt -2.377641 0.772542
vt -2.377641 -0.772542
vt 1.469463 2.022542
vt 2.377641 -0.772542
vt 2.377641 0.772542
vt 9.250000 1.200000
vt -9.250000 1.200000
vt 9.250000 0.000000
vt -9.250000 0.000000
vt -11.400000 -9.250000
vt -0.977641 0.772542
vt -11.400000 9.250000
vt -0.069463 2.022542
vt 1.400000 2.500000
vt 11.400000 -9.250000
vt 1.400000 -2.500000
vt -0.069463 -2.022542
vt -0.977641 -0.772542
vt 11.400000 9.250000
vt 3.777641 0.772542
vt 3.777641 -0.772542
vt 2.869463 -2.022542
vt 2.869463 2.022542
vt 30.650000 0.000000
vt -7.850000 0.000000
vt 30.650000 -9.150000
vt -7.850000 -18.500000
vt 30.650000 -18.150000
vt 30.650000 -18.500000
vt 43.150002 -18.150000
vt 43.150002 -9.150000
vt -18.500000 -4.300000
vt 0.000000 -4.300000
vt -18.500000 3.500000
vt 0.000000 3.500000
vt -24.250000 5.500000
vt 5.750000 5.500000
vt 5.750000 3.500000
vt -24.250000 3.500000
vt 30.650000 5.750000
vt 19.850000 -7.250000
vt 30.650000 -24.250000
vt 19.850000 -11.250000
vt 15.850000 -11.250000
vt 15.850000 -7.250000
vt -43.150002 5.750000
vt -43.150002 -24.250000
vt -4.300000 -30.650000
vt 3.500000 -30.650000
vt -4.300000 -7.850000
vt 3.500000 30.650000
vt -5.500000 30.650000
vt -5.500000 -7.850000
vn 0.0000 1.0000 0.0000
vn 0.0000 0.0000 -1.0000
vn 0.0000 -1.0000 0.0000
vn 0.0000 -0.0000 1.0000
vn 1.0000 0.0000 0.0000
vn -1.0000 -0.0000 0.0000
vn 0.5878 0.0000 -0.8090
vn -0.5878 0.0000 -0.8090
vn -0.9511 -0.0000 -0.3090
vn -0.9511 -0.0000 0.3090
vn -0.5878 -0.0000 0.8090
vn 0.5878 0.0000 0.8090
vn 0.9511 0.0000 0.3090
vn 0.9511 0.0000 -0.3090
s 1
f 1/1/1 2/2/1 3/3/1
f 3/3/1 2/2/1 4/4/1
f 1/5/2 5/6/2 2/7/2
f 2/7/2 5/6/2 6/8/2
f 7/9/3 8/10/3 5/11/3
f 5/11/3 8/10/3 6/12/3
f 7/13/4 3/14/4 8/15/4
f 8/15/4 3/14/4 4/16/4
f 1/17/5 3/18/5 5/19/5
f 5/19/5 3/18/5 7/20/5
f 9/21/4 10/22/4 11/23/4
f 11/23/4 10/22/4 12/24/4
f 13/25/2 14/26/2 15/27/2
f 15/27/2 14/26/2 16/28/2
f 16/29/5 17/30/5 15/31/5
f 15/31/5 17/30/5 18/32/5
f 11/33/1 19/34/1 9/35/1
f 9/35/1 19/34/1 20/36/1
f 20/36/1 19/34/1 21/37/1
f 21/37/1 19/34/1 22/38/1
f 23/39/5 14/40/5 24/41/5
f 24/41/5 14/40/5 25/42/5
f 25/42/5 14/40/5 9/43/5
f 25/42/5 9/43/5 20/44/5
f 13/45/5 6/46/5 14/40/5
f 14/40/5 6/46/5 8/47/5
f 14/40/5 8/47/5 9/43/5
f 9/43/5 8/47/5 10/48/5
f 10/48/5 8/47/5 4/49/5
f 10/48/5 4/49/5 2/50/5
f 6/46/5 13/45/5 2/50/5
f 2/50/5 13/45/5 10/48/5
f 21/51/4 26/52/4 20/53/4
f 20/53/4 26/52/4 25/54/4
f 23/55/2 24/56/2 27/57/2
f 27/57/2 24/56/2 28/58/2
f 16/59/1 14/60/1 17/61/1
f 17/61/1 14/60/1 23/62/1
f 17/61/1 23/62/1 27/63/1
f 27/63/1 29/64/1 17/61/1
f 12/65/5 30/66/5 11/67/5
f 11/67/5 30/66/5 19/68/5
f 18/69/2 17/70/2 31/71/2
f 31/71/2 17/70/2 29/72/2
f 31/71/2 29/72/2 32/73/2
f 31/71/2 33/74/2 18/69/2
f 34/75/6 35/76/6 36/77/6
f 36/77/6 35/76/6 37/78/6
f 38/79/4 39/80/4 35/81/4
f 35/81/4 39/80/4 37/82/4
f 38/79/5 40/83/5 39/84/5
f 39/84/5 40/83/5 41/85/5
f 34/86/2 36/87/2 40/83/2
f 40/83/2 36/87/2 41/88/2
f 34/75/3 40/83/3 35/81/3
f 35/81/3 40/83/3 38/89/3
f 42/90/7 43/91/7 44/92/2
f 44/92/2 43/91/7 45/93/2
f 44/92/2 45/93/2 46/94/8
f 46/94/8 45/93/2 47/95/8
f 46/94/8 47/95/8 48/96/9
f 48/96/9 47/95/8 49/97/9
f 48/96/9 49/97/9 50/98/10
f 50/98/10 49/97/9 51/99/10
f 50/98/10 51/99/10 52/100/11
f 52/100/11 51/99/10 53/101/11
f 52/100/11 53/101/11 54/102/4
f 54/102/4 53/101/11 55/103/4
f 54/104/4 55/105/4 56/106/12
f 56/106/12 55/105/4 57/107/12
f 56/106/12 57/107/12 58/108/13
f 58/108/13 57/107/12 59/109/13
f 58/108/13 59/109/13 60/110/14
f 60/110/14 59/109/13 61/111/14
f 60/110/14 61/111/14 42/90/7
f 42/90/7 61/111/14 43/91/7
f 46/112/1 54/113/1 44/114/1
f 44/114/1 54/113/1 56/115/1
f 44/114/1 56/115/1 42/116/1
f 42/116/1 56/115/1 58/117/1
f 42/116/1 58/117/1 60/118/1
f 54/113/1 46/112/1 52/119/1
f 52/119/1 46/112/1 48/120/1
f 52/119/1 48/120/1 50/121/1
f 31/122/6 62/123/6 33/124/6
f 33/124/6 62/123/6 63/125/6
f 64/126/1 59/127/1 32/128/1
f 32/128/1 59/127/1 57/129/1
f 32/128/1 57/129/1 55/130/1
f 62/131/1 45/132/1 64/126/1
f 64/126/1 45/132/1 43/133/1
f 64/126/1 43/133/1 61/134/1
f 31/135/1 51/136/1 62/131/1
f 62/131/1 51/136/1 49/137/1
f 62/131/1 49/137/1 47/138/1
f 32/128/1 55/130/1 31/135/1
f 31/135/1 55/130/1 53/139/1
f 31/135/1 53/139/1 51/136/1
f 61/134/1 59/127/1 64/126/1
f 47/138/1 45/132/1 62/131/1
f 18/140/1 33/141/1 15/142/1
f 15/142/1 33/141/1 63/143/1
f 15/142/1 63/143/1 12/144/1
f 12/144/1 63/143/1 30/145/1
f 12/144/1 10/146/1 15/142/1
f 15/142/1 10/146/1 13/147/1
f 64/148/6 32/149/6 22/150/6
f 22/150/6 32/149/6 29/151/6
f 22/150/6 29/151/6 26/152/6
f 26/152/6 29/151/6 28/153/6
f 28/153/6 29/151/6 27/154/6
f 26/152/6 21/155/6 22/150/6
f 28/156/3 36/157/3 26/158/3
f 26/158/3 36/157/3 37/159/3
f 26/158/3 37/159/3 39/160/3
f 36/157/3 28/156/3 41/161/3
f 41/161/3 28/156/3 24/162/3
f 41/161/3 24/162/3 25/163/3
f 41/161/3 25/163/3 39/160/3
f 39/160/3 25/163/3 26/158/3
f 64/164/4 22/165/4 62/166/4
f 62/166/4 22/165/4 19/167/4
f 62/166/4 19/167/4 30/168/4
f 30/168/4 63/169/4 62/166/4
